# xmcd
#
# Track frame offsets:
#	150
#	13934
#	30142
#	49874
#	67867
#	86118
#	106918
#	122806
#	134429
#	149561
#	166300
#	186875
#	197852
#	211787
#	230038
#	247137
#	262881
#	278781
#	299697
#	314241
#
# Disc length: 4429 seconds
#
# Revision: 0
# Processed by: cddbd v1.5.2PL0 Copyright (c) Steve Scherf et al.
# Submitted via: EasyCDDAExtractor 16.0.9.1
#
DISCID=38114b14
DTITLE=Ray Charles - N-106 Ray Charles  Complete Country and Western CD3
DYEAR=1900
DGENRE=
TTITLE0=Ring of fire
TTITLE1=What am I living for
TTITLE2=The three bells
TTITLE3=All I ever need is you
TTITLE4=Wichita lineman
TTITLE5=Down in the valley
TTITLE6=Take me home, country roads
TTITLE7=Never ending song of love
TTITLE8=Come live with me
TTITLE9=Sunshine
TTITLE10=We had it all
TTITLE11=(Turn off the light and) Love
TTITLE12=I wish you were here tonight
TTITLE13=Ain´t your memory got not prid
TTITLE14=Born to love me
TTITLE15=I don´t want no stranger sleep
TTITLE16=Let your love flow
TTITLE17=You feel good all over
TTITLE18=You´ve got the longest leaving
TTITLE19=String bean
EXTD=
EXTT0=
EXTT1=
EXTT2=
EXTT3=
EXTT4=
EXTT5=
EXTT6=
EXTT7=
EXTT8=
EXTT9=
EXTT10=
EXTT11=
EXTT12=
EXTT13=
EXTT14=
EXTT15=
EXTT16=
EXTT17=
EXTT18=
EXTT19=
PLAYORDER=
